<svg id="visual" viewBox="0 0 960 250" width="960" height="250" xmlns="http://www.w3.org/2000/svg" xmlns:xlink="http://www.w3.org/1999/xlink" version="1.1"><path d="M0 213L12.3 209.8C24.7 206.7 49.3 200.3 74 196.5C98.7 192.7 123.3 191.3 148 192.7C172.7 194 197.3 198 221.8 200.5C246.3 203 270.7 204 295.2 206.7C319.7 209.3 344.3 213.7 369 213.5C393.7 213.3 418.3 208.7 443 205.8C467.7 203 492.3 202 517 205C541.7 208 566.3 215 591 215C615.7 215 640.3 208 664.8 207C689.3 206 713.7 211 738.2 212C762.7 213 787.3 210 812 207.2C836.7 204.3 861.3 201.7 886 203.2C910.7 204.7 935.3 210.3 947.7 213.2L960 216L960 251L947.7 251C935.3 251 910.7 251 886 251C861.3 251 836.7 251 812 251C787.3 251 762.7 251 738.2 251C713.7 251 689.3 251 664.8 251C640.3 251 615.7 251 591 251C566.3 251 541.7 251 517 251C492.3 251 467.7 251 443 251C418.3 251 393.7 251 369 251C344.3 251 319.7 251 295.2 251C270.7 251 246.3 251 221.8 251C197.3 251 172.7 251 148 251C123.3 251 98.7 251 74 251C49.3 251 24.7 251 12.3 251L0 251Z" fill="#90c4fb"></path><path d="M0 230L12.3 225.2C24.7 220.3 49.3 210.7 74 209.3C98.7 208 123.3 215 148 215.2C172.7 215.3 197.3 208.7 221.8 209.8C246.3 211 270.7 220 295.2 224.7C319.7 229.3 344.3 229.7 369 227.3C393.7 225 418.3 220 443 215.8C467.7 211.7 492.3 208.3 517 209C541.7 209.7 566.3 214.3 591 218.3C615.7 222.3 640.3 225.7 664.8 222.8C689.3 220 713.7 211 738.2 208.3C762.7 205.7 787.3 209.3 812 214C836.7 218.7 861.3 224.3 886 224.2C910.7 224 935.3 218 947.7 215L960 212L960 251L947.7 251C935.3 251 910.7 251 886 251C861.3 251 836.7 251 812 251C787.3 251 762.7 251 738.2 251C713.7 251 689.3 251 664.8 251C640.3 251 615.7 251 591 251C566.3 251 541.7 251 517 251C492.3 251 467.7 251 443 251C418.3 251 393.7 251 369 251C344.3 251 319.7 251 295.2 251C270.7 251 246.3 251 221.8 251C197.3 251 172.7 251 148 251C123.3 251 98.7 251 74 251C49.3 251 24.7 251 12.3 251L0 251Z" fill="#74b5fa"></path><path d="M0 223L12.3 225.5C24.7 228 49.3 233 74 234.3C98.7 235.7 123.3 233.3 148 230C172.7 226.7 197.3 222.3 221.8 223.3C246.3 224.3 270.7 230.7 295.2 232.2C319.7 233.7 344.3 230.3 369 229C393.7 227.7 418.3 228.3 443 230.7C467.7 233 492.3 237 517 236.3C541.7 235.7 566.3 230.3 591 227.5C615.7 224.7 640.3 224.3 664.8 225.8C689.3 227.3 713.7 230.7 738.2 231.2C762.7 231.7 787.3 229.3 812 230.8C836.7 232.3 861.3 237.7 886 240.2C910.7 242.7 935.3 242.3 947.7 242.2L960 242L960 251L947.7 251C935.3 251 910.7 251 886 251C861.3 251 836.7 251 812 251C787.3 251 762.7 251 738.2 251C713.7 251 689.3 251 664.8 251C640.3 251 615.7 251 591 251C566.3 251 541.7 251 517 251C492.3 251 467.7 251 443 251C418.3 251 393.7 251 369 251C344.3 251 319.7 251 295.2 251C270.7 251 246.3 251 221.8 251C197.3 251 172.7 251 148 251C123.3 251 98.7 251 74 251C49.3 251 24.7 251 12.3 251L0 251Z" fill="#56a6f9"></path></svg>