<svg id="visual" viewBox="0 0 960 250" width="960" height="250" xmlns="http://www.w3.org/2000/svg" xmlns:xlink="http://www.w3.org/1999/xlink" version="1.1"><path d="M0 195L11.5 198.5C23 202 46 209 68.8 210.8C91.7 212.7 114.3 209.3 137.2 209.3C160 209.3 183 212.7 205.8 212.3C228.7 212 251.3 208 274.2 207.2C297 206.3 320 208.7 342.8 209.3C365.7 210 388.3 209 411.2 208.2C434 207.3 457 206.7 480 204.8C503 203 526 200 548.8 200.5C571.7 201 594.3 205 617.2 204C640 203 663 197 685.8 192.3C708.7 187.7 731.3 184.3 754.2 188.2C777 192 800 203 822.8 205.3C845.7 207.7 868.3 201.3 891.2 196C914 190.7 937 186.3 948.5 184.2L960 182L960 251L948.5 251C937 251 914 251 891.2 251C868.3 251 845.7 251 822.8 251C800 251 777 251 754.2 251C731.3 251 708.7 251 685.8 251C663 251 640 251 617.2 251C594.3 251 571.7 251 548.8 251C526 251 503 251 480 251C457 251 434 251 411.2 251C388.3 251 365.7 251 342.8 251C320 251 297 251 274.2 251C251.3 251 228.7 251 205.8 251C183 251 160 251 137.2 251C114.3 251 91.7 251 68.8 251C46 251 23 251 11.5 251L0 251Z" fill="#aeeedd"></path><path d="M0 208L11.5 207.2C23 206.3 46 204.7 68.8 206.7C91.7 208.7 114.3 214.3 137.2 218.3C160 222.3 183 224.7 205.8 225.8C228.7 227 251.3 227 274.2 224.5C297 222 320 217 342.8 217C365.7 217 388.3 222 411.2 224.7C434 227.3 457 227.7 480 224.7C503 221.7 526 215.3 548.8 212C571.7 208.7 594.3 208.3 617.2 210.5C640 212.7 663 217.3 685.8 216C708.7 214.7 731.3 207.3 754.2 204.5C777 201.7 800 203.3 822.8 207.2C845.7 211 868.3 217 891.2 220C914 223 937 223 948.5 223L960 223L960 251L948.5 251C937 251 914 251 891.2 251C868.3 251 845.7 251 822.8 251C800 251 777 251 754.2 251C731.3 251 708.7 251 685.8 251C663 251 640 251 617.2 251C594.3 251 571.7 251 548.8 251C526 251 503 251 480 251C457 251 434 251 411.2 251C388.3 251 365.7 251 342.8 251C320 251 297 251 274.2 251C251.3 251 228.7 251 205.8 251C183 251 160 251 137.2 251C114.3 251 91.7 251 68.8 251C46 251 23 251 11.5 251L0 251Z" fill="#7cdcc2"></path><path d="M0 229L11.5 228.2C23 227.3 46 225.7 68.8 223.8C91.7 222 114.3 220 137.2 221.8C160 223.7 183 229.3 205.8 230.2C228.7 231 251.3 227 274.2 226.3C297 225.7 320 228.3 342.8 229.2C365.7 230 388.3 229 411.2 228.5C434 228 457 228 480 230.8C503 233.7 526 239.3 548.8 239.5C571.7 239.7 594.3 234.3 617.2 233.8C640 233.3 663 237.7 685.8 237.5C708.7 237.3 731.3 232.7 754.2 232.8C777 233 800 238 822.8 240.7C845.7 243.3 868.3 243.7 891.2 239C914 234.3 937 224.7 948.5 219.8L960 215L960 251L948.5 251C937 251 914 251 891.2 251C868.3 251 845.7 251 822.8 251C800 251 777 251 754.2 251C731.3 251 708.7 251 685.8 251C663 251 640 251 617.2 251C594.3 251 571.7 251 548.8 251C526 251 503 251 480 251C457 251 434 251 411.2 251C388.3 251 365.7 251 342.8 251C320 251 297 251 274.2 251C251.3 251 228.7 251 205.8 251C183 251 160 251 137.2 251C114.3 251 91.7 251 68.8 251C46 251 23 251 11.5 251L0 251Z" fill="#40c9a5"></path></svg>