<svg id="visual" viewBox="0 0 960 250" width="960" height="250" xmlns="http://www.w3.org/2000/svg" xmlns:xlink="http://www.w3.org/1999/xlink" version="1.1"><path d="M0 206L16 206.2C32 206.3 64 206.7 96 200.7C128 194.7 160 182.3 192 177C224 171.7 256 173.3 288 181.5C320 189.7 352 204.3 384 209.2C416 214 448 209 480 202.5C512 196 544 188 576 188.7C608 189.3 640 198.7 672 203.5C704 208.3 736 208.7 768 209C800 209.3 832 209.7 864 207C896 204.3 928 198.7 944 195.8L960 193L960 251L944 251C928 251 896 251 864 251C832 251 800 251 768 251C736 251 704 251 672 251C640 251 608 251 576 251C544 251 512 251 480 251C448 251 416 251 384 251C352 251 320 251 288 251C256 251 224 251 192 251C160 251 128 251 96 251C64 251 32 251 16 251L0 251Z" fill="#F0DDC1" stroke-linecap="round" stroke-linejoin="miter"></path></svg>