<svg id="visual" viewBox="0 0 960 250" width="960" height="250" xmlns="http://www.w3.org/2000/svg" xmlns:xlink="http://www.w3.org/1999/xlink" version="1.1"><path d="M0 232L14.5 224.8C29 217.7 58 203.3 87.2 196.5C116.3 189.7 145.7 190.3 174.8 194.2C204 198 233 205 262 207.2C291 209.3 320 206.7 349 209C378 211.3 407 218.7 436.2 218C465.3 217.3 494.7 208.7 523.8 207C553 205.3 582 210.7 611 213.3C640 216 669 216 698 218.7C727 221.3 756 226.7 785.2 229.5C814.3 232.3 843.7 232.7 872.8 230C902 227.3 931 221.7 945.5 218.8L960 216L960 251L945.5 251C931 251 902 251 872.8 251C843.7 251 814.3 251 785.2 251C756 251 727 251 698 251C669 251 640 251 611 251C582 251 553 251 523.8 251C494.7 251 465.3 251 436.2 251C407 251 378 251 349 251C320 251 291 251 262 251C233 251 204 251 174.8 251C145.7 251 116.3 251 87.2 251C58 251 29 251 14.5 251L0 251Z" fill="#F0DDC1" stroke-linecap="round" stroke-linejoin="miter"></path></svg>