<svg id="visual" viewBox="0 0 960 250" width="960" height="250" xmlns="http://www.w3.org/2000/svg" xmlns:xlink="http://www.w3.org/1999/xlink" version="1.1"><path d="M0 215L14.5 214.3C29 213.7 58 212.3 87.2 212.7C116.3 213 145.7 215 174.8 215.3C204 215.7 233 214.3 262 213.8C291 213.3 320 213.7 349 210.5C378 207.3 407 200.7 436.2 201C465.3 201.3 494.7 208.7 523.8 214.8C553 221 582 226 611 223.5C640 221 669 211 698 208.2C727 205.3 756 209.7 785.2 214C814.3 218.3 843.7 222.7 872.8 224.3C902 226 931 225 945.5 224.5L960 224L960 251L945.5 251C931 251 902 251 872.8 251C843.7 251 814.3 251 785.2 251C756 251 727 251 698 251C669 251 640 251 611 251C582 251 553 251 523.8 251C494.7 251 465.3 251 436.2 251C407 251 378 251 349 251C320 251 291 251 262 251C233 251 204 251 174.8 251C145.7 251 116.3 251 87.2 251C58 251 29 251 14.5 251L0 251Z" fill="#F0DDC1" stroke-linecap="round" stroke-linejoin="miter"></path></svg>