<svg id="visual" viewBox="0 0 960 250" width="960" height="250" xmlns="http://www.w3.org/2000/svg" xmlns:xlink="http://www.w3.org/1999/xlink" version="1.1"><path d="M0 219L14.5 214.8C29 210.7 58 202.3 87.2 203.8C116.3 205.3 145.7 216.7 174.8 221.3C204 226 233 224 262 224C291 224 320 226 349 220.7C378 215.3 407 202.7 436.2 202.5C465.3 202.3 494.7 214.7 523.8 218.2C553 221.7 582 216.3 611 213.3C640 210.3 669 209.7 698 209.8C727 210 756 211 785.2 208.7C814.3 206.3 843.7 200.7 872.8 197.8C902 195 931 195 945.5 195L960 195L960 251L945.5 251C931 251 902 251 872.8 251C843.7 251 814.3 251 785.2 251C756 251 727 251 698 251C669 251 640 251 611 251C582 251 553 251 523.8 251C494.7 251 465.3 251 436.2 251C407 251 378 251 349 251C320 251 291 251 262 251C233 251 204 251 174.8 251C145.7 251 116.3 251 87.2 251C58 251 29 251 14.5 251L0 251Z" fill="#F0DDC1" stroke-linecap="round" stroke-linejoin="miter"></path></svg>