<svg id="visual" viewBox="0 0 960 250" width="960" height="250" xmlns="http://www.w3.org/2000/svg" xmlns:xlink="http://www.w3.org/1999/xlink" version="1.1"><path d="M0 175L14.5 175.2C29 175.3 58 175.7 87.2 174.2C116.3 172.7 145.7 169.3 174.8 173.8C204 178.3 233 190.7 262 189.8C291 189 320 175 349 174C378 173 407 185 436.2 189.7C465.3 194.3 494.7 191.7 523.8 188.8C553 186 582 183 611 181.7C640 180.3 669 180.7 698 180.8C727 181 756 181 785.2 181.3C814.3 181.7 843.7 182.3 872.8 184C902 185.7 931 188.3 945.5 189.7L960 191L960 251L945.5 251C931 251 902 251 872.8 251C843.7 251 814.3 251 785.2 251C756 251 727 251 698 251C669 251 640 251 611 251C582 251 553 251 523.8 251C494.7 251 465.3 251 436.2 251C407 251 378 251 349 251C320 251 291 251 262 251C233 251 204 251 174.8 251C145.7 251 116.3 251 87.2 251C58 251 29 251 14.5 251L0 251Z" fill="#d1d0f3"></path><path d="M0 190L14.5 190.3C29 190.7 58 191.3 87.2 195.2C116.3 199 145.7 206 174.8 206.5C204 207 233 201 262 197.5C291 194 320 193 349 193C378 193 407 194 436.2 197.2C465.3 200.3 494.7 205.7 523.8 206.2C553 206.7 582 202.3 611 199.2C640 196 669 194 698 194.8C727 195.7 756 199.3 785.2 201.3C814.3 203.3 843.7 203.7 872.8 204.5C902 205.3 931 206.7 945.5 207.3L960 208L960 251L945.5 251C931 251 902 251 872.8 251C843.7 251 814.3 251 785.2 251C756 251 727 251 698 251C669 251 640 251 611 251C582 251 553 251 523.8 251C494.7 251 465.3 251 436.2 251C407 251 378 251 349 251C320 251 291 251 262 251C233 251 204 251 174.8 251C145.7 251 116.3 251 87.2 251C58 251 29 251 14.5 251L0 251Z" fill="#c0bef9"></path><path d="M0 216L14.5 217.7C29 219.3 58 222.7 87.2 223.5C116.3 224.3 145.7 222.7 174.8 219.7C204 216.7 233 212.3 262 212C291 211.7 320 215.3 349 215.8C378 216.3 407 213.7 436.2 214C465.3 214.3 494.7 217.7 523.8 217.5C553 217.3 582 213.7 611 213.7C640 213.7 669 217.3 698 219.5C727 221.7 756 222.3 785.2 221.2C814.3 220 843.7 217 872.8 214.7C902 212.3 931 210.7 945.5 209.8L960 209L960 251L945.5 251C931 251 902 251 872.8 251C843.7 251 814.3 251 785.2 251C756 251 727 251 698 251C669 251 640 251 611 251C582 251 553 251 523.8 251C494.7 251 465.3 251 436.2 251C407 251 378 251 349 251C320 251 291 251 262 251C233 251 204 251 174.8 251C145.7 251 116.3 251 87.2 251C58 251 29 251 14.5 251L0 251Z" fill="#b0abff"></path></svg>