<svg id="visual" viewBox="0 0 960 250" width="960" height="250" xmlns="http://www.w3.org/2000/svg" xmlns:xlink="http://www.w3.org/1999/xlink" version="1.1"><path d="M0 217L12.3 220.5C24.7 224 49.3 231 74 232.5C98.7 234 123.3 230 148 225.3C172.7 220.7 197.3 215.3 221.8 214.3C246.3 213.3 270.7 216.7 295.2 217.7C319.7 218.7 344.3 217.3 369 220.3C393.7 223.3 418.3 230.7 443 230C467.7 229.3 492.3 220.7 517 219.3C541.7 218 566.3 224 591 226C615.7 228 640.3 226 664.8 226.7C689.3 227.3 713.7 230.7 738.2 228.5C762.7 226.3 787.3 218.7 812 217.2C836.7 215.7 861.3 220.3 886 224.5C910.7 228.7 935.3 232.3 947.7 234.2L960 236L960 251L947.7 251C935.3 251 910.7 251 886 251C861.3 251 836.7 251 812 251C787.3 251 762.7 251 738.2 251C713.7 251 689.3 251 664.8 251C640.3 251 615.7 251 591 251C566.3 251 541.7 251 517 251C492.3 251 467.7 251 443 251C418.3 251 393.7 251 369 251C344.3 251 319.7 251 295.2 251C270.7 251 246.3 251 221.8 251C197.3 251 172.7 251 148 251C123.3 251 98.7 251 74 251C49.3 251 24.7 251 12.3 251L0 251Z" fill="#F0DDC1" stroke-linecap="round" stroke-linejoin="miter"></path></svg>