<svg id="visual" viewBox="0 0 960 250" width="960" height="250" xmlns="http://www.w3.org/2000/svg" xmlns:xlink="http://www.w3.org/1999/xlink" version="1.1"><path d="M0 227L12.3 224.7C24.7 222.3 49.3 217.7 74 218C98.7 218.3 123.3 223.7 148 227.8C172.7 232 197.3 235 221.8 232.2C246.3 229.3 270.7 220.7 295.2 219.2C319.7 217.7 344.3 223.3 369 223.5C393.7 223.7 418.3 218.3 443 218.7C467.7 219 492.3 225 517 228.3C541.7 231.7 566.3 232.3 591 232C615.7 231.7 640.3 230.3 664.8 231.3C689.3 232.3 713.7 235.7 738.2 234.3C762.7 233 787.3 227 812 225.3C836.7 223.7 861.3 226.3 886 225.5C910.7 224.7 935.3 220.3 947.7 218.2L960 216L960 251L947.7 251C935.3 251 910.7 251 886 251C861.3 251 836.7 251 812 251C787.3 251 762.7 251 738.2 251C713.7 251 689.3 251 664.8 251C640.3 251 615.7 251 591 251C566.3 251 541.7 251 517 251C492.3 251 467.7 251 443 251C418.3 251 393.7 251 369 251C344.3 251 319.7 251 295.2 251C270.7 251 246.3 251 221.8 251C197.3 251 172.7 251 148 251C123.3 251 98.7 251 74 251C49.3 251 24.7 251 12.3 251L0 251Z" fill="#F0DDC1" stroke-linecap="round" stroke-linejoin="miter"></path></svg>