<svg id="visual" viewBox="0 0 960 250" width="960" height="250" xmlns="http://www.w3.org/2000/svg" xmlns:xlink="http://www.w3.org/1999/xlink" version="1.1"><path d="M0 237L12.3 233.8C24.7 230.7 49.3 224.3 74 220.3C98.7 216.3 123.3 214.7 148 217C172.7 219.3 197.3 225.7 221.8 230C246.3 234.3 270.7 236.7 295.2 236.5C319.7 236.3 344.3 233.7 369 232.5C393.7 231.3 418.3 231.7 443 228.5C467.7 225.3 492.3 218.7 517 218.5C541.7 218.3 566.3 224.7 591 228.7C615.7 232.7 640.3 234.3 664.8 232.2C689.3 230 713.7 224 738.2 224.2C762.7 224.3 787.3 230.7 812 230.7C836.7 230.7 861.3 224.3 886 223C910.7 221.7 935.3 225.3 947.7 227.2L960 229L960 251L947.7 251C935.3 251 910.7 251 886 251C861.3 251 836.7 251 812 251C787.3 251 762.7 251 738.2 251C713.7 251 689.3 251 664.8 251C640.3 251 615.7 251 591 251C566.3 251 541.7 251 517 251C492.3 251 467.7 251 443 251C418.3 251 393.7 251 369 251C344.3 251 319.7 251 295.2 251C270.7 251 246.3 251 221.8 251C197.3 251 172.7 251 148 251C123.3 251 98.7 251 74 251C49.3 251 24.7 251 12.3 251L0 251Z" fill="#F0DDC1" stroke-linecap="round" stroke-linejoin="miter"></path></svg>