<svg id="visual" viewBox="0 0 960 300" width="960" height="300" xmlns="http://www.w3.org/2000/svg" xmlns:xlink="http://www.w3.org/1999/xlink" version="1.1"><path d="M0 280L12.3 276C24.7 272 49.3 264 74 263.2C98.7 262.3 123.3 268.7 148 272.5C172.7 276.3 197.3 277.7 221.8 276C246.3 274.3 270.7 269.7 295.2 266.5C319.7 263.3 344.3 261.7 369 259.8C393.7 258 418.3 256 443 259.5C467.7 263 492.3 272 517 275C541.7 278 566.3 275 591 272.2C615.7 269.3 640.3 266.7 664.8 268C689.3 269.3 713.7 274.7 738.2 277.3C762.7 280 787.3 280 812 280.5C836.7 281 861.3 282 886 279.8C910.7 277.7 935.3 272.3 947.7 269.7L960 267L960 301L947.7 301C935.3 301 910.7 301 886 301C861.3 301 836.7 301 812 301C787.3 301 762.7 301 738.2 301C713.7 301 689.3 301 664.8 301C640.3 301 615.7 301 591 301C566.3 301 541.7 301 517 301C492.3 301 467.7 301 443 301C418.3 301 393.7 301 369 301C344.3 301 319.7 301 295.2 301C270.7 301 246.3 301 221.8 301C197.3 301 172.7 301 148 301C123.3 301 98.7 301 74 301C49.3 301 24.7 301 12.3 301L0 301Z" fill="#bf5547" stroke-linecap="round" stroke-linejoin="miter"></path></svg>