<svg id="visual" viewBox="0 0 960 300" width="960" height="300" xmlns="http://www.w3.org/2000/svg" xmlns:xlink="http://www.w3.org/1999/xlink" version="1.1"><path d="M0 261L12.3 253C24.7 245 49.3 229 74 227.5C98.7 226 123.3 239 148 246.5C172.7 254 197.3 256 221.8 252.7C246.3 249.3 270.7 240.7 295.2 234.7C319.7 228.7 344.3 225.3 369 221.7C393.7 218 418.3 214 443 220.8C467.7 227.7 492.3 245.3 517 251.2C541.7 257 566.3 251 591 245.3C615.7 239.7 640.3 234.3 664.8 237.2C689.3 240 713.7 251 738.2 256.2C762.7 261.3 787.3 260.7 812 261.7C836.7 262.7 861.3 265.3 886 261.2C910.7 257 935.3 246 947.7 240.5L960 235L960 301L947.7 301C935.3 301 910.7 301 886 301C861.3 301 836.7 301 812 301C787.3 301 762.7 301 738.2 301C713.7 301 689.3 301 664.8 301C640.3 301 615.7 301 591 301C566.3 301 541.7 301 517 301C492.3 301 467.7 301 443 301C418.3 301 393.7 301 369 301C344.3 301 319.7 301 295.2 301C270.7 301 246.3 301 221.8 301C197.3 301 172.7 301 148 301C123.3 301 98.7 301 74 301C49.3 301 24.7 301 12.3 301L0 301Z" fill="#F0DDC1" stroke-linecap="round" stroke-linejoin="miter"></path></svg>