<svg id="visual" viewBox="0 0 900 250" width="900" height="250" xmlns="http://www.w3.org/2000/svg" xmlns:xlink="http://www.w3.org/1999/xlink" version="1.1"><g transform="translate(449.3126295759787 140.23091178459595)"><path d="M35.6 -55.6C44.2 -42.8 47.8 -29.7 53.7 -16.3C59.6 -2.9 67.8 10.9 64.1 20.3C60.3 29.7 44.6 34.7 31.9 39.4C19.2 44.1 9.6 48.5 0.2 48.3C-9.2 48 -18.4 43 -30.6 38.1C-42.8 33.2 -58 28.5 -62.3 19.3C-66.6 10.1 -59.9 -3.6 -52.5 -14.2C-45.1 -24.8 -37 -32.2 -28.1 -44.9C-19.2 -57.7 -9.6 -75.7 2 -78.4C13.5 -81.1 27 -68.5 35.6 -55.6" fill="#FFB3AC"></path></g></svg>