<svg id="visual" viewBox="0 0 900 250" width="900" height="250" xmlns="http://www.w3.org/2000/svg" xmlns:xlink="http://www.w3.org/1999/xlink" version="1.1"><g transform="translate(451.17086847825556 121.67926053131332)"><path d="M36 -55C44.5 -43.3 48 -30 48.5 -18.1C49.1 -6.3 46.8 4.1 43.6 14.2C40.3 24.2 36 34 28.6 47.2C21.2 60.4 10.6 77.1 -3.7 82.2C-18 87.3 -36.1 80.9 -44.3 67.9C-52.5 55 -51 35.5 -50.5 20.3C-50.1 5.2 -50.7 -5.8 -49.6 -18.3C-48.5 -30.8 -45.7 -44.9 -37.2 -56.7C-28.6 -68.4 -14.3 -77.7 -0.3 -77.3C13.7 -76.9 27.4 -66.8 36 -55" fill="#FFB3AC"></path></g></svg>