<svg id="visual" viewBox="0 0 900 250" width="900" height="250" xmlns="http://www.w3.org/2000/svg" xmlns:xlink="http://www.w3.org/1999/xlink" version="1.1"><g transform="translate(448.4255488482558 111.54036856465676)"><path d="M39.2 -47.8C53.3 -43.7 69 -35.6 73.8 -23.4C78.6 -11.1 72.6 5.3 67.7 22.5C62.8 39.7 58.9 57.8 47.8 69.5C36.7 81.2 18.4 86.6 4.6 80.3C-9.2 74 -18.4 56 -31.5 44.9C-44.7 33.8 -61.8 29.7 -68.6 19.7C-75.5 9.7 -72 -6.3 -66.3 -20.8C-60.5 -35.3 -52.6 -48.4 -41.2 -53.4C-29.8 -58.3 -14.9 -55.2 -1.2 -53.5C12.5 -51.9 25.1 -51.9 39.2 -47.8" fill="#FFB3AC"></path></g></svg>