<svg id="visual" viewBox="0 0 900 250" width="900" height="250" xmlns="http://www.w3.org/2000/svg" xmlns:xlink="http://www.w3.org/1999/xlink" version="1.1"><g transform="translate(456.7975796810747 129.81908589288145)"><path d="M30.6 -42.2C38 -36.7 41.3 -25.6 48.2 -13.5C55.1 -1.4 65.6 11.7 63.3 21.2C61.1 30.8 46.1 36.8 33.4 42.9C20.8 48.9 10.4 55 0.5 54.3C-9.4 53.6 -18.8 46.2 -28.5 39.2C-38.1 32.2 -48.1 25.5 -58 14.3C-67.8 3.1 -77.7 -12.7 -77.2 -28.5C-76.7 -44.2 -65.9 -60 -51.3 -63.3C-36.7 -66.6 -18.4 -57.3 -3.4 -52.6C11.6 -47.9 23.1 -47.8 30.6 -42.2" fill="#FFB3AC"></path></g></svg>