<svg id="visual" viewBox="0 0 900 250" width="900" height="250" xmlns="http://www.w3.org/2000/svg" xmlns:xlink="http://www.w3.org/1999/xlink" version="1.1"><g transform="translate(450.14185369541997 131.98734616861574)"><path d="M33 -44.7C47.5 -34.8 67.5 -31.6 75.9 -21.1C84.3 -10.5 81.2 7.4 74.5 23.1C67.9 38.7 57.7 52.1 44.7 57.2C31.7 62.4 15.9 59.2 0.3 58.8C-15.3 58.4 -30.6 60.7 -45.4 56.2C-60.3 51.7 -74.7 40.3 -79.4 25.8C-84.2 11.3 -79.2 -6.4 -70.7 -20C-62.2 -33.6 -50.2 -43.1 -37.8 -53.7C-25.5 -64.4 -12.7 -76.2 -1.8 -73.8C9.2 -71.3 18.4 -54.6 33 -44.7" fill="#FFB3AC"></path></g></svg>