<svg id="visual" viewBox="0 0 960 300" width="960" height="300" xmlns="http://www.w3.org/2000/svg" xmlns:xlink="http://www.w3.org/1999/xlink" version="1.1"><path d="M0 201L16 202.5C32 204 64 207 96 210.2C128 213.3 160 216.7 192 219.2C224 221.7 256 223.3 288 221.2C320 219 352 213 384 211.7C416 210.3 448 213.7 480 211.5C512 209.3 544 201.7 576 198.5C608 195.3 640 196.7 672 198.2C704 199.7 736 201.3 768 205.8C800 210.3 832 217.7 864 217.2C896 216.7 928 208.3 944 204.2L960 200L960 301L944 301C928 301 896 301 864 301C832 301 800 301 768 301C736 301 704 301 672 301C640 301 608 301 576 301C544 301 512 301 480 301C448 301 416 301 384 301C352 301 320 301 288 301C256 301 224 301 192 301C160 301 128 301 96 301C64 301 32 301 16 301L0 301Z" fill="#b3afe2"></path><path d="M0 244L16 243.7C32 243.3 64 242.7 96 240.5C128 238.3 160 234.7 192 231.8C224 229 256 227 288 229.3C320 231.7 352 238.3 384 240.2C416 242 448 239 480 236.8C512 234.7 544 233.3 576 232.7C608 232 640 232 672 232.8C704 233.7 736 235.3 768 232.5C800 229.7 832 222.3 864 218.8C896 215.3 928 215.7 944 215.8L960 216L960 301L944 301C928 301 896 301 864 301C832 301 800 301 768 301C736 301 704 301 672 301C640 301 608 301 576 301C544 301 512 301 480 301C448 301 416 301 384 301C352 301 320 301 288 301C256 301 224 301 192 301C160 301 128 301 96 301C64 301 32 301 16 301L0 301Z" fill="#bcb9e6"></path><path d="M0 241L16 243.2C32 245.3 64 249.7 96 253C128 256.3 160 258.7 192 256.3C224 254 256 247 288 245.8C320 244.7 352 249.3 384 249.3C416 249.3 448 244.7 480 247C512 249.3 544 258.7 576 260.2C608 261.7 640 255.3 672 255C704 254.7 736 260.3 768 262.3C800 264.3 832 262.7 864 258.5C896 254.3 928 247.7 944 244.3L960 241L960 301L944 301C928 301 896 301 864 301C832 301 800 301 768 301C736 301 704 301 672 301C640 301 608 301 576 301C544 301 512 301 480 301C448 301 416 301 384 301C352 301 320 301 288 301C256 301 224 301 192 301C160 301 128 301 96 301C64 301 32 301 16 301L0 301Z" fill="#c6c3ea"></path><path d="M0 282L16 279.8C32 277.7 64 273.3 96 270.3C128 267.3 160 265.7 192 264.8C224 264 256 264 288 267C320 270 352 276 384 280.2C416 284.3 448 286.7 480 287.8C512 289 544 289 576 288.5C608 288 640 287 672 284.5C704 282 736 278 768 276.2C800 274.3 832 274.7 864 273C896 271.3 928 267.7 944 265.8L960 264L960 301L944 301C928 301 896 301 864 301C832 301 800 301 768 301C736 301 704 301 672 301C640 301 608 301 576 301C544 301 512 301 480 301C448 301 416 301 384 301C352 301 320 301 288 301C256 301 224 301 192 301C160 301 128 301 96 301C64 301 32 301 16 301L0 301Z" fill="#d0ceed"></path></svg>