<svg id="visual" viewBox="0 0 960 250" width="960" height="250" xmlns="http://www.w3.org/2000/svg" xmlns:xlink="http://www.w3.org/1999/xlink" version="1.1"><path d="M0 213L11.5 212.2C23 211.3 46 209.7 68.8 208.5C91.7 207.3 114.3 206.7 137.2 210C160 213.3 183 220.7 205.8 221.7C228.7 222.7 251.3 217.3 274.2 215.7C297 214 320 216 342.8 218.2C365.7 220.3 388.3 222.7 411.2 220.5C434 218.3 457 211.7 480 212.2C503 212.7 526 220.3 548.8 220.7C571.7 221 594.3 214 617.2 212.8C640 211.7 663 216.3 685.8 218.2C708.7 220 731.3 219 754.2 218.7C777 218.3 800 218.7 822.8 216C845.7 213.3 868.3 207.7 891.2 206.5C914 205.3 937 208.7 948.5 210.3L960 212L960 251L948.5 251C937 251 914 251 891.2 251C868.3 251 845.7 251 822.8 251C800 251 777 251 754.2 251C731.3 251 708.7 251 685.8 251C663 251 640 251 617.2 251C594.3 251 571.7 251 548.8 251C526 251 503 251 480 251C457 251 434 251 411.2 251C388.3 251 365.7 251 342.8 251C320 251 297 251 274.2 251C251.3 251 228.7 251 205.8 251C183 251 160 251 137.2 251C114.3 251 91.7 251 68.8 251C46 251 23 251 11.5 251L0 251Z" fill="#ffcbc8"></path><path d="M0 227L11.5 225.8C23 224.7 46 222.3 68.8 222.8C91.7 223.3 114.3 226.7 137.2 226.2C160 225.7 183 221.3 205.8 222.3C228.7 223.3 251.3 229.7 274.2 230.8C297 232 320 228 342.8 225C365.7 222 388.3 220 411.2 218.5C434 217 457 216 480 217.7C503 219.3 526 223.7 548.8 224.8C571.7 226 594.3 224 617.2 222C640 220 663 218 685.8 219.3C708.7 220.7 731.3 225.3 754.2 226.5C777 227.7 800 225.3 822.8 225.3C845.7 225.3 868.3 227.7 891.2 226.8C914 226 937 222 948.5 220L960 218L960 251L948.5 251C937 251 914 251 891.2 251C868.3 251 845.7 251 822.8 251C800 251 777 251 754.2 251C731.3 251 708.7 251 685.8 251C663 251 640 251 617.2 251C594.3 251 571.7 251 548.8 251C526 251 503 251 480 251C457 251 434 251 411.2 251C388.3 251 365.7 251 342.8 251C320 251 297 251 274.2 251C251.3 251 228.7 251 205.8 251C183 251 160 251 137.2 251C114.3 251 91.7 251 68.8 251C46 251 23 251 11.5 251L0 251Z" fill="#ffb3ac"></path><path d="M0 243L11.5 242.8C23 242.7 46 242.3 68.8 241.3C91.7 240.3 114.3 238.7 137.2 236.3C160 234 183 231 205.8 231.8C228.7 232.7 251.3 237.3 274.2 238.8C297 240.3 320 238.7 342.8 236.7C365.7 234.7 388.3 232.3 411.2 233.3C434 234.3 457 238.7 480 241.2C503 243.7 526 244.3 548.8 243.5C571.7 242.7 594.3 240.3 617.2 239C640 237.7 663 237.3 685.8 236C708.7 234.7 731.3 232.3 754.2 231C777 229.7 800 229.3 822.8 232C845.7 234.7 868.3 240.3 891.2 240.2C914 240 937 234 948.5 231L960 228L960 251L948.5 251C937 251 914 251 891.2 251C868.3 251 845.7 251 822.8 251C800 251 777 251 754.2 251C731.3 251 708.7 251 685.8 251C663 251 640 251 617.2 251C594.3 251 571.7 251 548.8 251C526 251 503 251 480 251C457 251 434 251 411.2 251C388.3 251 365.7 251 342.8 251C320 251 297 251 274.2 251C251.3 251 228.7 251 205.8 251C183 251 160 251 137.2 251C114.3 251 91.7 251 68.8 251C46 251 23 251 11.5 251L0 251Z" fill="#ff9a90"></path></svg>