<svg id="visual" viewBox="0 0 960 300" width="960" height="300" xmlns="http://www.w3.org/2000/svg" xmlns:xlink="http://www.w3.org/1999/xlink" version="1.1"><path d="M0 235L22.8 233.7C45.7 232.3 91.3 229.7 137 229.7C182.7 229.7 228.3 232.3 274 233.5C319.7 234.7 365.3 234.3 411.2 233.5C457 232.7 503 231.3 548.8 233C594.7 234.7 640.3 239.3 686 240.7C731.7 242 777.3 240 823 239.2C868.7 238.3 914.3 238.7 937.2 238.8L960 239L960 301L937.2 301C914.3 301 868.7 301 823 301C777.3 301 731.7 301 686 301C640.3 301 594.7 301 548.8 301C503 301 457 301 411.2 301C365.3 301 319.7 301 274 301C228.3 301 182.7 301 137 301C91.3 301 45.7 301 22.8 301L0 301Z" fill="#7d76cb"></path><path d="M0 255L22.8 253.7C45.7 252.3 91.3 249.7 137 250.7C182.7 251.7 228.3 256.3 274 256.3C319.7 256.3 365.3 251.7 411.2 249.7C457 247.7 503 248.3 548.8 250.5C594.7 252.7 640.3 256.3 686 255.3C731.7 254.3 777.3 248.7 823 246.8C868.7 245 914.3 247 937.2 248L960 249L960 301L937.2 301C914.3 301 868.7 301 823 301C777.3 301 731.7 301 686 301C640.3 301 594.7 301 548.8 301C503 301 457 301 411.2 301C365.3 301 319.7 301 274 301C228.3 301 182.7 301 137 301C91.3 301 45.7 301 22.8 301L0 301Z" fill="#8a84d5"></path><path d="M0 266L22.8 266.5C45.7 267 91.3 268 137 268.5C182.7 269 228.3 269 274 269.7C319.7 270.3 365.3 271.7 411.2 272.2C457 272.7 503 272.3 548.8 271.3C594.7 270.3 640.3 268.7 686 269C731.7 269.3 777.3 271.7 823 271C868.7 270.3 914.3 266.7 937.2 264.8L960 263L960 301L937.2 301C914.3 301 868.7 301 823 301C777.3 301 731.7 301 686 301C640.3 301 594.7 301 548.8 301C503 301 457 301 411.2 301C365.3 301 319.7 301 274 301C228.3 301 182.7 301 137 301C91.3 301 45.7 301 22.8 301L0 301Z" fill="#9892df"></path><path d="M0 288L22.8 287.2C45.7 286.3 91.3 284.7 137 282.8C182.7 281 228.3 279 274 278.7C319.7 278.3 365.3 279.7 411.2 281C457 282.3 503 283.7 548.8 283.3C594.7 283 640.3 281 686 279.7C731.7 278.3 777.3 277.7 823 279.2C868.7 280.7 914.3 284.3 937.2 286.2L960 288L960 301L937.2 301C914.3 301 868.7 301 823 301C777.3 301 731.7 301 686 301C640.3 301 594.7 301 548.8 301C503 301 457 301 411.2 301C365.3 301 319.7 301 274 301C228.3 301 182.7 301 137 301C91.3 301 45.7 301 22.8 301L0 301Z" fill="#a6a0e9"></path></svg>