<svg id="visual" viewBox="0 0 960 300" width="960" height="300" xmlns="http://www.w3.org/2000/svg" xmlns:xlink="http://www.w3.org/1999/xlink" version="1.1"><path d="M0 280L17.8 281C35.7 282 71.3 284 106.8 283.5C142.3 283 177.7 280 213.2 278C248.7 276 284.3 275 320 274.3C355.7 273.7 391.3 273.3 426.8 273.7C462.3 274 497.7 275 533.2 277.2C568.7 279.3 604.3 282.7 640 284C675.7 285.3 711.3 284.7 746.8 283C782.3 281.3 817.7 278.7 853.2 277.5C888.7 276.3 924.3 276.7 942.2 276.8L960 277L960 301L942.2 301C924.3 301 888.7 301 853.2 301C817.7 301 782.3 301 746.8 301C711.3 301 675.7 301 640 301C604.3 301 568.7 301 533.2 301C497.7 301 462.3 301 426.8 301C391.3 301 355.7 301 320 301C284.3 301 248.7 301 213.2 301C177.7 301 142.3 301 106.8 301C71.3 301 35.7 301 17.8 301L0 301Z" fill="#ffb3ac"></path><path d="M0 278L17.8 278.5C35.7 279 71.3 280 106.8 280.5C142.3 281 177.7 281 213.2 280.8C248.7 280.7 284.3 280.3 320 282.2C355.7 284 391.3 288 426.8 289C462.3 290 497.7 288 533.2 288C568.7 288 604.3 290 640 290.5C675.7 291 711.3 290 746.8 288.5C782.3 287 817.7 285 853.2 285C888.7 285 924.3 287 942.2 288L960 289L960 301L942.2 301C924.3 301 888.7 301 853.2 301C817.7 301 782.3 301 746.8 301C711.3 301 675.7 301 640 301C604.3 301 568.7 301 533.2 301C497.7 301 462.3 301 426.8 301C391.3 301 355.7 301 320 301C284.3 301 248.7 301 213.2 301C177.7 301 142.3 301 106.8 301C71.3 301 35.7 301 17.8 301L0 301Z" fill="#fd8e8a"></path><path d="M0 289L17.8 290.3C35.7 291.7 71.3 294.3 106.8 294.5C142.3 294.7 177.7 292.3 213.2 292C248.7 291.7 284.3 293.3 320 293.7C355.7 294 391.3 293 426.8 293C462.3 293 497.7 294 533.2 293.5C568.7 293 604.3 291 640 290.3C675.7 289.7 711.3 290.3 746.8 291.2C782.3 292 817.7 293 853.2 293.3C888.7 293.7 924.3 293.3 942.2 293.2L960 293L960 301L942.2 301C924.3 301 888.7 301 853.2 301C817.7 301 782.3 301 746.8 301C711.3 301 675.7 301 640 301C604.3 301 568.7 301 533.2 301C497.7 301 462.3 301 426.8 301C391.3 301 355.7 301 320 301C284.3 301 248.7 301 213.2 301C177.7 301 142.3 301 106.8 301C71.3 301 35.7 301 17.8 301L0 301Z" fill="#ed6960"></path></svg>