<svg id="visual" viewBox="0 0 960 300" width="960" height="300" xmlns="http://www.w3.org/2000/svg" xmlns:xlink="http://www.w3.org/1999/xlink" version="1.1"><rect x="0" y="0" width="960" height="300" fill="#001220"></rect><path d="M0 287L17.8 285.7C35.7 284.3 71.3 281.7 106.8 281.7C142.3 281.7 177.7 284.3 213.2 284C248.7 283.7 284.3 280.3 320 278.3C355.7 276.3 391.3 275.7 426.8 276.3C462.3 277 497.7 279 533.2 280.5C568.7 282 604.3 283 640 282.5C675.7 282 711.3 280 746.8 278.5C782.3 277 817.7 276 853.2 275.8C888.7 275.7 924.3 276.3 942.2 276.7L960 277L960 301L942.2 301C924.3 301 888.7 301 853.2 301C817.7 301 782.3 301 746.8 301C711.3 301 675.7 301 640 301C604.3 301 568.7 301 533.2 301C497.7 301 462.3 301 426.8 301C391.3 301 355.7 301 320 301C284.3 301 248.7 301 213.2 301C177.7 301 142.3 301 106.8 301C71.3 301 35.7 301 17.8 301L0 301Z" fill="#ffb3ac"></path><path d="M0 292L17.8 290.2C35.7 288.3 71.3 284.7 106.8 283.8C142.3 283 177.7 285 213.2 286.2C248.7 287.3 284.3 287.7 320 286.8C355.7 286 391.3 284 426.8 283.2C462.3 282.3 497.7 282.7 533.2 282.8C568.7 283 604.3 283 640 283.5C675.7 284 711.3 285 746.8 284.8C782.3 284.7 817.7 283.3 853.2 283C888.7 282.7 924.3 283.3 942.2 283.7L960 284L960 301L942.2 301C924.3 301 888.7 301 853.2 301C817.7 301 782.3 301 746.8 301C711.3 301 675.7 301 640 301C604.3 301 568.7 301 533.2 301C497.7 301 462.3 301 426.8 301C391.3 301 355.7 301 320 301C284.3 301 248.7 301 213.2 301C177.7 301 142.3 301 106.8 301C71.3 301 35.7 301 17.8 301L0 301Z" fill="#fd8e8a"></path><path d="M0 294L17.8 293.7C35.7 293.3 71.3 292.7 106.8 292.5C142.3 292.3 177.7 292.7 213.2 293C248.7 293.3 284.3 293.7 320 293.5C355.7 293.3 391.3 292.7 426.8 292.2C462.3 291.7 497.7 291.3 533.2 291.2C568.7 291 604.3 291 640 291.5C675.7 292 711.3 293 746.8 293C782.3 293 817.7 292 853.2 292C888.7 292 924.3 293 942.2 293.5L960 294L960 301L942.2 301C924.3 301 888.7 301 853.2 301C817.7 301 782.3 301 746.8 301C711.3 301 675.7 301 640 301C604.3 301 568.7 301 533.2 301C497.7 301 462.3 301 426.8 301C391.3 301 355.7 301 320 301C284.3 301 248.7 301 213.2 301C177.7 301 142.3 301 106.8 301C71.3 301 35.7 301 17.8 301L0 301Z" fill="#ed6960"></path></svg>