<svg id="visual" viewBox="0 0 900 250" width="900" height="250" xmlns="http://www.w3.org/2000/svg" xmlns:xlink="http://www.w3.org/1999/xlink" version="1.1"><path d="M0 204L21.5 202.5C43 201 86 198 128.8 199.2C171.7 200.3 214.3 205.7 257.2 208.5C300 211.3 343 211.7 385.8 212.2C428.7 212.7 471.3 213.3 514.2 210C557 206.7 600 199.3 642.8 197.7C685.7 196 728.3 200 771.2 201.2C814 202.3 857 200.7 878.5 199.8L900 199L900 251L878.5 251C857 251 814 251 771.2 251C728.3 251 685.7 251 642.8 251C600 251 557 251 514.2 251C471.3 251 428.7 251 385.8 251C343 251 300 251 257.2 251C214.3 251 171.7 251 128.8 251C86 251 43 251 21.5 251L0 251Z" fill="#c8c6ff"></path><path d="M0 215L21.5 213.3C43 211.7 86 208.3 128.8 206.7C171.7 205 214.3 205 257.2 208C300 211 343 217 385.8 217.7C428.7 218.3 471.3 213.7 514.2 214C557 214.3 600 219.7 642.8 221.5C685.7 223.3 728.3 221.7 771.2 219.8C814 218 857 216 878.5 215L900 214L900 251L878.5 251C857 251 814 251 771.2 251C728.3 251 685.7 251 642.8 251C600 251 557 251 514.2 251C471.3 251 428.7 251 385.8 251C343 251 300 251 257.2 251C214.3 251 171.7 251 128.8 251C86 251 43 251 21.5 251L0 251Z" fill="#b0abff"></path><path d="M0 221L21.5 222.8C43 224.7 86 228.3 128.8 231C171.7 233.7 214.3 235.3 257.2 235.8C300 236.3 343 235.7 385.8 233C428.7 230.3 471.3 225.7 514.2 225.5C557 225.3 600 229.7 642.8 231.8C685.7 234 728.3 234 771.2 233.8C814 233.7 857 233.3 878.5 233.2L900 233L900 251L878.5 251C857 251 814 251 771.2 251C728.3 251 685.7 251 642.8 251C600 251 557 251 514.2 251C471.3 251 428.7 251 385.8 251C343 251 300 251 257.2 251C214.3 251 171.7 251 128.8 251C86 251 43 251 21.5 251L0 251Z" fill="#978fff"></path></svg>