<svg id="visual" viewBox="0 0 960 250" width="960" height="250" xmlns="http://www.w3.org/2000/svg" xmlns:xlink="http://www.w3.org/1999/xlink" version="1.1"><path d="M0 209L11.5 209.8C23 210.7 46 212.3 68.8 212.3C91.7 212.3 114.3 210.7 137.2 210.2C160 209.7 183 210.3 205.8 205.5C228.7 200.7 251.3 190.3 274.2 187.3C297 184.3 320 188.7 342.8 191.5C365.7 194.3 388.3 195.7 411.2 196.7C434 197.7 457 198.3 480 196.7C503 195 526 191 548.8 189.3C571.7 187.7 594.3 188.3 617.2 190.5C640 192.7 663 196.3 685.8 198C708.7 199.7 731.3 199.3 754.2 198.2C777 197 800 195 822.8 195C845.7 195 868.3 197 891.2 198.7C914 200.3 937 201.7 948.5 202.3L960 203L960 251L948.5 251C937 251 914 251 891.2 251C868.3 251 845.7 251 822.8 251C800 251 777 251 754.2 251C731.3 251 708.7 251 685.8 251C663 251 640 251 617.2 251C594.3 251 571.7 251 548.8 251C526 251 503 251 480 251C457 251 434 251 411.2 251C388.3 251 365.7 251 342.8 251C320 251 297 251 274.2 251C251.3 251 228.7 251 205.8 251C183 251 160 251 137.2 251C114.3 251 91.7 251 68.8 251C46 251 23 251 11.5 251L0 251Z" fill="#d1d0f3"></path><path d="M0 204L11.5 203.2C23 202.3 46 200.7 68.8 202.8C91.7 205 114.3 211 137.2 214.7C160 218.3 183 219.7 205.8 219.3C228.7 219 251.3 217 274.2 214.8C297 212.7 320 210.3 342.8 212.7C365.7 215 388.3 222 411.2 221.7C434 221.3 457 213.7 480 210C503 206.3 526 206.7 548.8 206.8C571.7 207 594.3 207 617.2 210.3C640 213.7 663 220.3 685.8 224.2C708.7 228 731.3 229 754.2 227.2C777 225.3 800 220.7 822.8 219.3C845.7 218 868.3 220 891.2 220.8C914 221.7 937 221.3 948.5 221.2L960 221L960 251L948.5 251C937 251 914 251 891.2 251C868.3 251 845.7 251 822.8 251C800 251 777 251 754.2 251C731.3 251 708.7 251 685.8 251C663 251 640 251 617.2 251C594.3 251 571.7 251 548.8 251C526 251 503 251 480 251C457 251 434 251 411.2 251C388.3 251 365.7 251 342.8 251C320 251 297 251 274.2 251C251.3 251 228.7 251 205.8 251C183 251 160 251 137.2 251C114.3 251 91.7 251 68.8 251C46 251 23 251 11.5 251L0 251Z" fill="#c0bef9"></path><path d="M0 220L11.5 224.2C23 228.3 46 236.7 68.8 238C91.7 239.3 114.3 233.7 137.2 233.2C160 232.7 183 237.3 205.8 238.2C228.7 239 251.3 236 274.2 234.7C297 233.3 320 233.7 342.8 231.2C365.7 228.7 388.3 223.3 411.2 221.2C434 219 457 220 480 224.3C503 228.7 526 236.3 548.8 237.8C571.7 239.3 594.3 234.7 617.2 230.5C640 226.3 663 222.7 685.8 223.2C708.7 223.7 731.3 228.3 754.2 229.2C777 230 800 227 822.8 226.3C845.7 225.7 868.3 227.3 891.2 229C914 230.7 937 232.3 948.5 233.2L960 234L960 251L948.5 251C937 251 914 251 891.2 251C868.3 251 845.7 251 822.8 251C800 251 777 251 754.2 251C731.3 251 708.7 251 685.8 251C663 251 640 251 617.2 251C594.3 251 571.7 251 548.8 251C526 251 503 251 480 251C457 251 434 251 411.2 251C388.3 251 365.7 251 342.8 251C320 251 297 251 274.2 251C251.3 251 228.7 251 205.8 251C183 251 160 251 137.2 251C114.3 251 91.7 251 68.8 251C46 251 23 251 11.5 251L0 251Z" fill="#b0abff"></path></svg>