<svg id="visual" viewBox="0 0 960 250" width="960" height="250" xmlns="http://www.w3.org/2000/svg" xmlns:xlink="http://www.w3.org/1999/xlink" version="1.1"><path d="M0 222L11.5 222.7C23 223.3 46 224.7 68.8 224.7C91.7 224.7 114.3 223.3 137.2 223C160 222.7 183 223.3 205.8 220.2C228.7 217 251.3 210 274.2 208C297 206 320 209 342.8 211C365.7 213 388.3 214 411.2 214.7C434 215.3 457 215.7 480 214.3C503 213 526 210 548.8 208.8C571.7 207.7 594.3 208.3 617.2 209.8C640 211.3 663 213.7 685.8 214.7C708.7 215.7 731.3 215.3 754.2 214.7C777 214 800 213 822.8 213.2C845.7 213.3 868.3 214.7 891.2 215.8C914 217 937 218 948.5 218.5L960 219L960 251L948.5 251C937 251 914 251 891.2 251C868.3 251 845.7 251 822.8 251C800 251 777 251 754.2 251C731.3 251 708.7 251 685.8 251C663 251 640 251 617.2 251C594.3 251 571.7 251 548.8 251C526 251 503 251 480 251C457 251 434 251 411.2 251C388.3 251 365.7 251 342.8 251C320 251 297 251 274.2 251C251.3 251 228.7 251 205.8 251C183 251 160 251 137.2 251C114.3 251 91.7 251 68.8 251C46 251 23 251 11.5 251L0 251Z" fill="#d1d0f3"></path><path d="M0 219L11.5 218.3C23 217.7 46 216.3 68.8 217.8C91.7 219.3 114.3 223.7 137.2 226.2C160 228.7 183 229.3 205.8 229C228.7 228.7 251.3 227.3 274.2 226C297 224.7 320 223.3 342.8 224.8C365.7 226.3 388.3 230.7 411.2 230.3C434 230 457 225 480 222.7C503 220.3 526 220.7 548.8 220.8C571.7 221 594.3 221 617.2 223.2C640 225.3 663 229.7 685.8 232.2C708.7 234.7 731.3 235.3 754.2 234.2C777 233 800 230 822.8 229.2C845.7 228.3 868.3 229.7 891.2 230.2C914 230.7 937 230.3 948.5 230.2L960 230L960 251L948.5 251C937 251 914 251 891.2 251C868.3 251 845.7 251 822.8 251C800 251 777 251 754.2 251C731.3 251 708.7 251 685.8 251C663 251 640 251 617.2 251C594.3 251 571.7 251 548.8 251C526 251 503 251 480 251C457 251 434 251 411.2 251C388.3 251 365.7 251 342.8 251C320 251 297 251 274.2 251C251.3 251 228.7 251 205.8 251C183 251 160 251 137.2 251C114.3 251 91.7 251 68.8 251C46 251 23 251 11.5 251L0 251Z" fill="#c0bef9"></path><path d="M0 230L11.5 232.7C23 235.3 46 240.7 68.8 241.5C91.7 242.3 114.3 238.7 137.2 238.5C160 238.3 183 241.7 205.8 242.2C228.7 242.7 251.3 240.3 274.2 239.3C297 238.3 320 238.7 342.8 237C365.7 235.3 388.3 231.7 411.2 230.2C434 228.7 457 229.3 480 232.3C503 235.3 526 240.7 548.8 241.8C571.7 243 594.3 240 617.2 237.2C640 234.3 663 231.7 685.8 231.8C708.7 232 731.3 235 754.2 235.7C777 236.3 800 234.7 822.8 234.3C845.7 234 868.3 235 891.2 236C914 237 937 238 948.5 238.5L960 239L960 251L948.5 251C937 251 914 251 891.2 251C868.3 251 845.7 251 822.8 251C800 251 777 251 754.2 251C731.3 251 708.7 251 685.8 251C663 251 640 251 617.2 251C594.3 251 571.7 251 548.8 251C526 251 503 251 480 251C457 251 434 251 411.2 251C388.3 251 365.7 251 342.8 251C320 251 297 251 274.2 251C251.3 251 228.7 251 205.8 251C183 251 160 251 137.2 251C114.3 251 91.7 251 68.8 251C46 251 23 251 11.5 251L0 251Z" fill="#b0abff"></path></svg>