<svg id="visual" viewBox="0 0 960 300" width="960" height="300" xmlns="http://www.w3.org/2000/svg" xmlns:xlink="http://www.w3.org/1999/xlink" version="1.1"><path d="M0 234L13.3 236.2C26.7 238.3 53.3 242.7 80 244.3C106.7 246 133.3 245 160 241.2C186.7 237.3 213.3 230.7 240 228.5C266.7 226.3 293.3 228.7 320 230.7C346.7 232.7 373.3 234.3 400 237.8C426.7 241.3 453.3 246.7 480 247.2C506.7 247.7 533.3 243.3 560 239.2C586.7 235 613.3 231 640 233.2C666.7 235.3 693.3 243.7 720 245.7C746.7 247.7 773.3 243.3 800 243.2C826.7 243 853.3 247 880 247C906.7 247 933.3 243 946.7 241L960 239L960 301L946.7 301C933.3 301 906.7 301 880 301C853.3 301 826.7 301 800 301C773.3 301 746.7 301 720 301C693.3 301 666.7 301 640 301C613.3 301 586.7 301 560 301C533.3 301 506.7 301 480 301C453.3 301 426.7 301 400 301C373.3 301 346.7 301 320 301C293.3 301 266.7 301 240 301C213.3 301 186.7 301 160 301C133.3 301 106.7 301 80 301C53.3 301 26.7 301 13.3 301L0 301Z" fill="#84dbc2"></path><path d="M0 269L13.3 266.5C26.7 264 53.3 259 80 258C106.7 257 133.3 260 160 260.5C186.7 261 213.3 259 240 257.8C266.7 256.7 293.3 256.3 320 256C346.7 255.7 373.3 255.3 400 255.3C426.7 255.3 453.3 255.7 480 256.5C506.7 257.3 533.3 258.7 560 260C586.7 261.3 613.3 262.7 640 260.7C666.7 258.7 693.3 253.3 720 252.3C746.7 251.3 773.3 254.7 800 254.7C826.7 254.7 853.3 251.3 880 251.7C906.7 252 933.3 256 946.7 258L960 260L960 301L946.7 301C933.3 301 906.7 301 880 301C853.3 301 826.7 301 800 301C773.3 301 746.7 301 720 301C693.3 301 666.7 301 640 301C613.3 301 586.7 301 560 301C533.3 301 506.7 301 480 301C453.3 301 426.7 301 400 301C373.3 301 346.7 301 320 301C293.3 301 266.7 301 240 301C213.3 301 186.7 301 160 301C133.3 301 106.7 301 80 301C53.3 301 26.7 301 13.3 301L0 301Z" fill="#40c9a5"></path><path d="M0 279L13.3 279.7C26.7 280.3 53.3 281.7 80 282.3C106.7 283 133.3 283 160 280.8C186.7 278.7 213.3 274.3 240 272.5C266.7 270.7 293.3 271.3 320 272.8C346.7 274.3 373.3 276.7 400 277.2C426.7 277.7 453.3 276.3 480 276.8C506.7 277.3 533.3 279.7 560 281C586.7 282.3 613.3 282.7 640 280.7C666.7 278.7 693.3 274.3 720 274.3C746.7 274.3 773.3 278.7 800 280.3C826.7 282 853.3 281 880 278.2C906.7 275.3 933.3 270.7 946.7 268.3L960 266L960 301L946.7 301C933.3 301 906.7 301 880 301C853.3 301 826.7 301 800 301C773.3 301 746.7 301 720 301C693.3 301 666.7 301 640 301C613.3 301 586.7 301 560 301C533.3 301 506.7 301 480 301C453.3 301 426.7 301 400 301C373.3 301 346.7 301 320 301C293.3 301 266.7 301 240 301C213.3 301 186.7 301 160 301C133.3 301 106.7 301 80 301C53.3 301 26.7 301 13.3 301L0 301Z" fill="#2f9479"></path></svg>