<svg id="visual" viewBox="0 0 960 300" width="960" height="300" xmlns="http://www.w3.org/2000/svg" xmlns:xlink="http://www.w3.org/1999/xlink" version="1.1"><path d="M0 174L10.7 170.5C21.3 167 42.7 160 64 158.5C85.3 157 106.7 161 128 162.5C149.3 164 170.7 163 192 166C213.3 169 234.7 176 256 176.2C277.3 176.3 298.7 169.7 320 169.2C341.3 168.7 362.7 174.3 384 173.7C405.3 173 426.7 166 448 166.7C469.3 167.3 490.7 175.7 512 178.5C533.3 181.3 554.7 178.7 576 175.8C597.3 173 618.7 170 640 165.3C661.3 160.7 682.7 154.3 704 154C725.3 153.7 746.7 159.3 768 164.8C789.3 170.3 810.7 175.7 832 175.3C853.3 175 874.7 169 896 168.3C917.3 167.7 938.7 172.3 949.3 174.7L960 177L960 301L949.3 301C938.7 301 917.3 301 896 301C874.7 301 853.3 301 832 301C810.7 301 789.3 301 768 301C746.7 301 725.3 301 704 301C682.7 301 661.3 301 640 301C618.7 301 597.3 301 576 301C554.7 301 533.3 301 512 301C490.7 301 469.3 301 448 301C426.7 301 405.3 301 384 301C362.7 301 341.3 301 320 301C298.7 301 277.3 301 256 301C234.7 301 213.3 301 192 301C170.7 301 149.3 301 128 301C106.7 301 85.3 301 64 301C42.7 301 21.3 301 10.7 301L0 301Z" fill="#b3afe2"></path><path d="M0 201L10.7 200.3C21.3 199.7 42.7 198.3 64 195.5C85.3 192.7 106.7 188.3 128 186.5C149.3 184.7 170.7 185.3 192 185.8C213.3 186.3 234.7 186.7 256 191C277.3 195.3 298.7 203.7 320 207.5C341.3 211.3 362.7 210.7 384 210.8C405.3 211 426.7 212 448 208.3C469.3 204.7 490.7 196.3 512 193.5C533.3 190.7 554.7 193.3 576 196C597.3 198.7 618.7 201.3 640 203.5C661.3 205.7 682.7 207.3 704 204.3C725.3 201.3 746.7 193.7 768 189.3C789.3 185 810.7 184 832 186.8C853.3 189.7 874.7 196.3 896 200.3C917.3 204.3 938.7 205.7 949.3 206.3L960 207L960 301L949.3 301C938.7 301 917.3 301 896 301C874.7 301 853.3 301 832 301C810.7 301 789.3 301 768 301C746.7 301 725.3 301 704 301C682.7 301 661.3 301 640 301C618.7 301 597.3 301 576 301C554.7 301 533.3 301 512 301C490.7 301 469.3 301 448 301C426.7 301 405.3 301 384 301C362.7 301 341.3 301 320 301C298.7 301 277.3 301 256 301C234.7 301 213.3 301 192 301C170.7 301 149.3 301 128 301C106.7 301 85.3 301 64 301C42.7 301 21.3 301 10.7 301L0 301Z" fill="#bcb9e6"></path><path d="M0 225L10.7 226.7C21.3 228.3 42.7 231.7 64 231.8C85.3 232 106.7 229 128 229C149.3 229 170.7 232 192 234.2C213.3 236.3 234.7 237.7 256 234.8C277.3 232 298.7 225 320 221C341.3 217 362.7 216 384 219C405.3 222 426.7 229 448 230.8C469.3 232.7 490.7 229.3 512 230.5C533.3 231.7 554.7 237.3 576 238.2C597.3 239 618.7 235 640 230.8C661.3 226.7 682.7 222.3 704 221C725.3 219.7 746.7 221.3 768 224.5C789.3 227.7 810.7 232.3 832 236C853.3 239.7 874.7 242.3 896 239.2C917.3 236 938.7 227 949.3 222.5L960 218L960 301L949.3 301C938.7 301 917.3 301 896 301C874.7 301 853.3 301 832 301C810.7 301 789.3 301 768 301C746.7 301 725.3 301 704 301C682.7 301 661.3 301 640 301C618.7 301 597.3 301 576 301C554.7 301 533.3 301 512 301C490.7 301 469.3 301 448 301C426.7 301 405.3 301 384 301C362.7 301 341.3 301 320 301C298.7 301 277.3 301 256 301C234.7 301 213.3 301 192 301C170.7 301 149.3 301 128 301C106.7 301 85.3 301 64 301C42.7 301 21.3 301 10.7 301L0 301Z" fill="#c6c3ea"></path><path d="M0 254L10.7 256C21.3 258 42.7 262 64 262C85.3 262 106.7 258 128 258.8C149.3 259.7 170.7 265.3 192 268.3C213.3 271.3 234.7 271.7 256 268.7C277.3 265.7 298.7 259.3 320 260.2C341.3 261 362.7 269 384 273C405.3 277 426.7 277 448 275.3C469.3 273.7 490.7 270.3 512 266.5C533.3 262.7 554.7 258.3 576 257.3C597.3 256.3 618.7 258.7 640 260.2C661.3 261.7 682.7 262.3 704 264.8C725.3 267.3 746.7 271.7 768 271.5C789.3 271.3 810.7 266.7 832 265.3C853.3 264 874.7 266 896 268.3C917.3 270.7 938.7 273.3 949.3 274.7L960 276L960 301L949.3 301C938.7 301 917.3 301 896 301C874.7 301 853.3 301 832 301C810.7 301 789.3 301 768 301C746.7 301 725.3 301 704 301C682.7 301 661.3 301 640 301C618.7 301 597.3 301 576 301C554.7 301 533.3 301 512 301C490.7 301 469.3 301 448 301C426.7 301 405.3 301 384 301C362.7 301 341.3 301 320 301C298.7 301 277.3 301 256 301C234.7 301 213.3 301 192 301C170.7 301 149.3 301 128 301C106.7 301 85.3 301 64 301C42.7 301 21.3 301 10.7 301L0 301Z" fill="#d0ceed"></path></svg>