<svg id="visual" viewBox="0 0 960 300" width="960" height="300" xmlns="http://www.w3.org/2000/svg" xmlns:xlink="http://www.w3.org/1999/xlink" version="1.1"><path d="M0 192L16 197C32 202 64 212 96 216.8C128 221.7 160 221.3 192 221.3C224 221.3 256 221.7 288 218.3C320 215 352 208 384 207.2C416 206.3 448 211.7 480 212.8C512 214 544 211 576 209.2C608 207.3 640 206.7 672 209.2C704 211.7 736 217.3 768 216.2C800 215 832 207 864 202.5C896 198 928 197 944 196.5L960 196L960 301L944 301C928 301 896 301 864 301C832 301 800 301 768 301C736 301 704 301 672 301C640 301 608 301 576 301C544 301 512 301 480 301C448 301 416 301 384 301C352 301 320 301 288 301C256 301 224 301 192 301C160 301 128 301 96 301C64 301 32 301 16 301L0 301Z" fill="#b3afe2"></path><path d="M0 221L16 222C32 223 64 225 96 226.3C128 227.7 160 228.3 192 229.8C224 231.3 256 233.7 288 234C320 234.3 352 232.7 384 229.2C416 225.7 448 220.3 480 218.2C512 216 544 217 576 217.3C608 217.7 640 217.3 672 219.8C704 222.3 736 227.7 768 228.8C800 230 832 227 864 226.2C896 225.3 928 226.7 944 227.3L960 228L960 301L944 301C928 301 896 301 864 301C832 301 800 301 768 301C736 301 704 301 672 301C640 301 608 301 576 301C544 301 512 301 480 301C448 301 416 301 384 301C352 301 320 301 288 301C256 301 224 301 192 301C160 301 128 301 96 301C64 301 32 301 16 301L0 301Z" fill="#bcb9e6"></path><path d="M0 241L16 241.2C32 241.3 64 241.7 96 244.5C128 247.3 160 252.7 192 253.5C224 254.3 256 250.7 288 252C320 253.3 352 259.7 384 262.3C416 265 448 264 480 260.2C512 256.3 544 249.7 576 249.8C608 250 640 257 672 260.3C704 263.7 736 263.3 768 263C800 262.7 832 262.3 864 259.8C896 257.3 928 252.7 944 250.3L960 248L960 301L944 301C928 301 896 301 864 301C832 301 800 301 768 301C736 301 704 301 672 301C640 301 608 301 576 301C544 301 512 301 480 301C448 301 416 301 384 301C352 301 320 301 288 301C256 301 224 301 192 301C160 301 128 301 96 301C64 301 32 301 16 301L0 301Z" fill="#c6c3ea"></path><path d="M0 287L16 285.7C32 284.3 64 281.7 96 280.3C128 279 160 279 192 278C224 277 256 275 288 275.8C320 276.7 352 280.3 384 281.2C416 282 448 280 480 276.2C512 272.3 544 266.7 576 264C608 261.3 640 261.7 672 261.7C704 261.7 736 261.3 768 261.7C800 262 832 263 864 265.8C896 268.7 928 273.3 944 275.7L960 278L960 301L944 301C928 301 896 301 864 301C832 301 800 301 768 301C736 301 704 301 672 301C640 301 608 301 576 301C544 301 512 301 480 301C448 301 416 301 384 301C352 301 320 301 288 301C256 301 224 301 192 301C160 301 128 301 96 301C64 301 32 301 16 301L0 301Z" fill="#d0ceed"></path></svg>