<svg id="visual" viewBox="0 0 960 250" width="960" height="250" xmlns="http://www.w3.org/2000/svg" xmlns:xlink="http://www.w3.org/1999/xlink" version="1.1"><path d="M0 205L11.5 204.3C23 203.7 46 202.3 68.8 199.2C91.7 196 114.3 191 137.2 191.7C160 192.3 183 198.7 205.8 200.2C228.7 201.7 251.3 198.3 274.2 197.7C297 197 320 199 342.8 199.3C365.7 199.7 388.3 198.3 411.2 197.3C434 196.3 457 195.7 480 196.7C503 197.7 526 200.3 548.8 203.7C571.7 207 594.3 211 617.2 213.2C640 215.3 663 215.7 685.8 212.2C708.7 208.7 731.3 201.3 754.2 201C777 200.7 800 207.3 822.8 207.2C845.7 207 868.3 200 891.2 198C914 196 937 199 948.5 200.5L960 202L960 251L948.5 251C937 251 914 251 891.2 251C868.3 251 845.7 251 822.8 251C800 251 777 251 754.2 251C731.3 251 708.7 251 685.8 251C663 251 640 251 617.2 251C594.3 251 571.7 251 548.8 251C526 251 503 251 480 251C457 251 434 251 411.2 251C388.3 251 365.7 251 342.8 251C320 251 297 251 274.2 251C251.3 251 228.7 251 205.8 251C183 251 160 251 137.2 251C114.3 251 91.7 251 68.8 251C46 251 23 251 11.5 251L0 251Z" fill="#90c4fb"></path><path d="M0 222L11.5 221.3C23 220.7 46 219.3 68.8 218.3C91.7 217.3 114.3 216.7 137.2 218.5C160 220.3 183 224.7 205.8 221.7C228.7 218.7 251.3 208.3 274.2 205.5C297 202.7 320 207.3 342.8 208.7C365.7 210 388.3 208 411.2 210.5C434 213 457 220 480 222.2C503 224.3 526 221.7 548.8 218.2C571.7 214.7 594.3 210.3 617.2 208.5C640 206.7 663 207.3 685.8 208.8C708.7 210.3 731.3 212.7 754.2 214.7C777 216.7 800 218.3 822.8 216.8C845.7 215.3 868.3 210.7 891.2 207.7C914 204.7 937 203.3 948.5 202.7L960 202L960 251L948.5 251C937 251 914 251 891.2 251C868.3 251 845.7 251 822.8 251C800 251 777 251 754.2 251C731.3 251 708.7 251 685.8 251C663 251 640 251 617.2 251C594.3 251 571.7 251 548.8 251C526 251 503 251 480 251C457 251 434 251 411.2 251C388.3 251 365.7 251 342.8 251C320 251 297 251 274.2 251C251.3 251 228.7 251 205.8 251C183 251 160 251 137.2 251C114.3 251 91.7 251 68.8 251C46 251 23 251 11.5 251L0 251Z" fill="#74b5fa"></path><path d="M0 236L11.5 234C23 232 46 228 68.8 229.5C91.7 231 114.3 238 137.2 239C160 240 183 235 205.8 233.8C228.7 232.7 251.3 235.3 274.2 237.2C297 239 320 240 342.8 239C365.7 238 388.3 235 411.2 232.7C434 230.3 457 228.7 480 227C503 225.3 526 223.7 548.8 226.3C571.7 229 594.3 236 617.2 238.2C640 240.3 663 237.7 685.8 234.2C708.7 230.7 731.3 226.3 754.2 226.2C777 226 800 230 822.8 232C845.7 234 868.3 234 891.2 231.2C914 228.3 937 222.7 948.5 219.8L960 217L960 251L948.5 251C937 251 914 251 891.2 251C868.3 251 845.7 251 822.8 251C800 251 777 251 754.2 251C731.3 251 708.7 251 685.8 251C663 251 640 251 617.2 251C594.3 251 571.7 251 548.8 251C526 251 503 251 480 251C457 251 434 251 411.2 251C388.3 251 365.7 251 342.8 251C320 251 297 251 274.2 251C251.3 251 228.7 251 205.8 251C183 251 160 251 137.2 251C114.3 251 91.7 251 68.8 251C46 251 23 251 11.5 251L0 251Z" fill="#56a6f9"></path></svg>